<svg width="7" height="12" viewBox="0 0 7 12" fill="none" xmlns="http://www.w3.org/2000/svg">
<path d="M0.700983 0.220976C0.583826 0.361251 0.519648 0.538212 0.519648 0.720976C0.519648 0.90374 0.583826 1.0807 0.700983 1.22098L5.01098 6.02098L0.690983 10.801C0.567995 10.9385 0.5 11.1165 0.5 11.301C0.5 11.4855 0.567995 11.6635 0.690983 11.801C0.744521 11.8627 0.810504 11.9125 0.884608 11.9469C0.958712 11.9814 1.03926 11.9998 1.12098 12.001C1.20135 12.0004 1.28061 11.9821 1.35317 11.9476C1.42573 11.913 1.48984 11.863 1.54098 11.801L6.30098 6.50098C6.42196 6.3625 6.48862 6.18485 6.48862 6.00098C6.48862 5.8171 6.42196 5.63946 6.30098 5.50098L1.55098 0.200977C1.49843 0.137982 1.43267 0.0873031 1.35837 0.0525264C1.28406 0.0177498 1.20302 -0.000276596 1.12098 -0.000276593C1.03894 -0.000276589 0.957904 0.0177498 0.8836 0.0525265C0.809295 0.0873031 0.743539 0.137982 0.690983 0.200977L0.700983 0.220976Z" fill="black"/>
</svg>
