<svg width="15" height="14" viewBox="0 0 15 14" fill="none" xmlns="http://www.w3.org/2000/svg">
<path d="M14.1412 2.19149L12.3225 0.371924C12.1901 0.245128 12.0331 0.146874 11.8612 0.0832456C11.6893 0.0196168 11.5062 -0.00803207 11.3232 0.00201109C10.539 0.0656223 9.8075 0.422601 9.27464 1.00178L1.46008 8.80993C1.20312 9.05247 1.03137 9.37158 0.970424 9.71972L0.520737 13.1989C0.495245 13.2968 0.493335 13.3994 0.515164 13.4982C0.536994 13.597 0.58194 13.6893 0.646313 13.7673C0.710686 13.8454 0.792649 13.9071 0.885471 13.9473C0.978294 13.9875 1.07933 14.0051 1.18028 13.9987H1.32018L4.79776 13.5588C5.14573 13.4978 5.4647 13.326 5.70712 13.0689L13.5117 5.24077C14.511 4.23101 14.8108 2.86134 14.1412 2.19149ZM4.64786 11.9992L4.56792 12.0592L2.1496 12.3691L2.45939 9.99965L2.51934 9.86968L8.21538 4.17103L10.3439 6.30052L4.64786 11.9992ZM12.5124 4.18102L11.4032 5.24077L9.27464 3.11128L10.3339 2.05153C10.5952 1.76043 10.9475 1.56658 11.3332 1.50166L13.012 3.18126C12.9585 3.55999 12.7831 3.91096 12.5124 4.18102Z" fill="black"/>
</svg>
