<svg width="14" height="8" viewBox="0 0 14 8" fill="none" xmlns="http://www.w3.org/2000/svg">
<path d="M8.99457 4.7503H5.00543C4.80706 4.7503 4.61681 4.67129 4.47654 4.53065C4.33627 4.39002 4.25747 4.19927 4.25747 4.00038C4.25747 3.80149 4.33627 3.61075 4.47654 3.47011C4.61681 3.32947 4.80706 3.25046 5.00543 3.25046H8.99457C9.19294 3.25046 9.38319 3.32947 9.52346 3.47011C9.66373 3.61075 9.74253 3.80149 9.74253 4.00038C9.74253 4.19927 9.66373 4.39002 9.52346 4.53065C9.38319 4.67129 9.19294 4.7503 8.99457 4.7503ZM4.00815 1.50065H5.25475C5.45312 1.50065 5.64337 1.42164 5.78364 1.281C5.92391 1.14036 6.00272 0.94962 6.00272 0.750728C6.00272 0.551837 5.92391 0.361092 5.78364 0.220455C5.64337 0.0798177 5.45312 0.000808566 5.25475 0.000808566H4.17769C3.16208 -0.0193595 2.17503 0.338379 1.40704 1.00498C0.639043 1.67157 0.144554 2.59977 0.019011 3.61042C-0.0354262 4.16748 0.027361 4.72979 0.203312 5.26099C0.379263 5.79219 0.664459 6.28044 1.04046 6.69418C1.41645 7.10792 1.87488 7.43792 2.38608 7.66285C2.89729 7.88778 3.44989 8.00262 4.00815 7.99995H5.25475C5.45312 7.99995 5.64337 7.92094 5.78364 7.78031C5.92391 7.63967 6.00272 7.44893 6.00272 7.25003C6.00272 7.05114 5.92391 6.8604 5.78364 6.71976C5.64337 6.57912 5.45312 6.50011 5.25475 6.50011H4.15774C3.52171 6.51387 2.90268 6.2936 2.4176 5.88094C1.93251 5.46827 1.61495 4.89177 1.52491 4.26035C1.49014 3.91206 1.52841 3.56033 1.63728 3.22775C1.74614 2.89517 1.92319 2.58911 2.15705 2.32921C2.39091 2.06931 2.67641 1.86134 2.9952 1.71865C3.31399 1.57595 3.65903 1.5017 4.00815 1.50065ZM13.981 3.61042C14.0354 4.16748 13.9726 4.72979 13.7967 5.26099C13.6207 5.79219 13.3355 6.28044 12.9595 6.69418C12.5835 7.10792 12.1251 7.43792 11.6139 7.66285C11.1027 7.88778 10.5501 8.00262 9.99185 7.99995H8.74525C8.54688 7.99995 8.35663 7.92094 8.21636 7.78031C8.07609 7.63967 7.99728 7.44893 7.99728 7.25003C7.99728 7.05114 8.07609 6.8604 8.21636 6.71976C8.35663 6.57912 8.54688 6.50011 8.74525 6.50011H9.99185C10.341 6.49907 10.686 6.42481 11.0048 6.28212C11.3236 6.13942 11.6091 5.93145 11.8429 5.67155C12.0768 5.41166 12.2539 5.10559 12.3627 4.77301C12.4716 4.44043 12.5099 4.0887 12.4751 3.74041C12.3851 3.10899 12.0675 2.53249 11.5824 2.11983C11.0973 1.70716 10.4783 1.4869 9.84226 1.50065H8.74525C8.54688 1.50065 8.35663 1.42164 8.21636 1.281C8.07609 1.14036 7.99728 0.94962 7.99728 0.750728C7.99728 0.551837 8.07609 0.361092 8.21636 0.220455C8.35663 0.0798177 8.54688 0.000808566 8.74525 0.000808566H9.82231C10.8379 -0.0193595 11.825 0.338379 12.593 1.00498C13.361 1.67157 13.8554 2.59977 13.981 3.61042Z" fill="#C06ECC"/>
</svg>
