<svg width="24" height="20" viewBox="0 0 24 20" fill="none" xmlns="http://www.w3.org/2000/svg">
<path d="M22.0003 -0.000152588H2.00035C1.55832 -0.000152588 1.1344 0.175442 0.821835 0.488003C0.509274 0.800563 0.333679 1.22449 0.333679 1.66651V18.3332C0.333679 18.7752 0.509274 19.1991 0.821835 19.5117C1.1344 19.8243 1.55832 19.9998 2.00035 19.9998H22.0003C22.4424 19.9998 22.8663 19.8243 23.1789 19.5117C23.4914 19.1991 23.667 18.7752 23.667 18.3332V1.66651C23.667 1.22449 23.4914 0.800563 23.1789 0.488003C22.8663 0.175442 22.4424 -0.000152588 22.0003 -0.000152588ZM21.167 2.49985V11.4998L17.967 9.63318C17.7259 9.50478 17.4569 9.43762 17.1837 9.43762C16.9105 9.43762 16.6415 9.50478 16.4003 9.63318L13.567 10.9998L8.75035 5.99985C8.4388 5.69447 8.01993 5.52342 7.58368 5.52342C7.14742 5.52342 6.72856 5.69447 6.41701 5.99985L2.83368 9.33318V2.66651L21.167 2.49985ZM2.83368 17.4998V12.4998C2.88539 12.4605 2.94128 12.4269 3.00035 12.3998L7.50035 8.23318L14.167 15.2498C14.2659 15.4023 14.3969 15.5313 14.5508 15.6279C14.7046 15.7245 14.8777 15.7864 15.058 15.8093C15.2382 15.8322 15.4213 15.8155 15.5945 15.7605C15.7676 15.7054 15.9267 15.6132 16.0605 15.4904C16.1944 15.3675 16.2999 15.217 16.3697 15.0492C16.4395 14.8815 16.4718 14.7005 16.4645 14.519C16.4572 14.3374 16.4104 14.1596 16.3273 13.998C16.2443 13.8364 16.127 13.6948 15.9837 13.5832L15.3337 12.8665L17.0003 12.0165L21.067 14.3998V17.4998H2.83368ZM16.7337 6.01651C16.7337 6.42856 16.6115 6.83135 16.3826 7.17395C16.1537 7.51655 15.8283 7.78358 15.4476 7.94126C15.0669 8.09894 14.648 8.1402 14.2439 8.05982C13.8398 7.97943 13.4686 7.78101 13.1772 7.48965C12.8858 7.19829 12.6874 6.82708 12.607 6.42295C12.5267 6.01882 12.5679 5.59994 12.7256 5.21926C12.8833 4.83858 13.1503 4.51321 13.4929 4.28429C13.8355 4.05537 14.2383 3.93318 14.6503 3.93318C14.9246 3.93096 15.1965 3.98333 15.4502 4.08724C15.704 4.19115 15.9345 4.34453 16.1284 4.53843C16.3223 4.73232 16.4757 4.96287 16.5796 5.21664C16.6835 5.4704 16.7359 5.74231 16.7337 6.01651Z" fill="black"/>
</svg>
