<svg width="14" height="10" viewBox="0 0 14 10" fill="none" xmlns="http://www.w3.org/2000/svg">
<path d="M7 1.5C9.26239 1.5 11.4447 3.89 12.3256 5C11.4447 6.11 9.26239 8.5 7 8.5C4.73761 8.5 2.5553 6.11 1.67437 5C2.5553 3.89 4.73761 1.5 7 1.5ZM7 0C3.86669 0 1.19386 3.08 0.192801 4.41C0.0675199 4.58126 0 4.78788 0 5C0 5.21212 0.0675199 5.41874 0.192801 5.59C1.19386 6.92 3.86669 10 7 10C10.1333 10 12.8061 6.92 13.8072 5.59C13.9325 5.41874 14 5.21212 14 5C14 4.78788 13.9325 4.58126 13.8072 4.41C12.8061 3.08 10.1333 0 7 0ZM7 2.5C6.62828 2.49836 6.26137 2.58399 5.92887 2.75C6.15266 2.76222 6.36764 2.84116 6.54608 2.97663C6.72452 3.1121 6.85822 3.29788 6.92993 3.51C6.99549 3.70815 7.00484 3.92057 6.95694 4.12371C6.90904 4.32684 6.80576 4.51276 6.65856 4.66085C6.51135 4.80893 6.32596 4.91341 6.12295 4.96268C5.91994 5.01195 5.70724 5.0041 5.50842 4.94C5.29608 4.86837 5.1101 4.73481 4.97449 4.55656C4.83887 4.37831 4.75985 4.16355 4.74762 3.94C4.58296 4.26914 4.49727 4.63205 4.49735 5C4.49735 5.49445 4.64413 5.9778 4.91913 6.38893C5.19412 6.80005 5.58498 7.12048 6.04228 7.3097C6.49958 7.49892 7.00278 7.54843 7.48824 7.45196C7.97371 7.3555 8.41964 7.1174 8.76964 6.76777C9.11964 6.41814 9.35799 5.97268 9.45456 5.48773C9.55112 5.00277 9.50156 4.50011 9.31214 4.04329C9.12272 3.58648 8.80195 3.19603 8.3904 2.92133C7.97884 2.64662 7.49498 2.5 7 2.5Z" fill="black"/>
</svg>
