<svg width="20" height="22" viewBox="0 0 20 22" fill="none" xmlns="http://www.w3.org/2000/svg">
    <path
            d="M17.7698 7.85C17.7325 7.47872 17.5582 7.13467 17.2808 6.88504C17.0034 6.63541 16.643 6.49813 16.2698 6.5H14.4998C14.4998 3.185 12.4748 0.5 9.99983 0.5C7.52483 0.5 5.49983 3.185 5.49983 6.5H3.74483C3.37168 6.49813 3.01123 6.63541 2.73387 6.88504C2.4565 7.13467 2.28214 7.47872 2.24483 7.85L0.99983 19.85C0.978801 20.0592 1.00199 20.2705 1.0679 20.4702C1.13381 20.6699 1.24096 20.8534 1.3824 21.009C1.52384 21.1646 1.69641 21.2887 1.88892 21.3733C2.08143 21.4579 2.28956 21.5011 2.49983 21.5H17.4998C17.7101 21.5011 17.9182 21.4579 18.1107 21.3733C18.3032 21.2887 18.4758 21.1646 18.6173 21.009C18.7587 20.8534 18.8659 20.6699 18.9318 20.4702C18.9977 20.2705 19.0209 20.0592 18.9998 19.85L17.7698 7.85ZM9.99983 2.405C11.4998 2.405 12.6998 4.52 12.6998 6.5H7.29983C7.29983 4.52 8.49983 2.405 9.99983 2.405ZM3.32483 19.25L4.40483 8.75H15.5948L16.6748 19.25H3.32483Z"
            fill="white"
    />
</svg>