<svg width="15" height="15" viewBox="0 0 15 15" fill="none" xmlns="http://www.w3.org/2000/svg">
<path d="M13.7852 13.7435L9.72293 9.67196C10.5501 8.57947 10.9317 7.21382 10.7908 5.85087C10.6498 4.48792 9.99664 3.22927 8.96334 2.32918C7.93003 1.4291 6.59357 0.954666 5.22392 1.00173C3.85427 1.04879 2.55353 1.61385 1.58448 2.58274C0.615416 3.55163 0.050267 4.85214 0.00319497 6.22155C-0.043877 7.59096 0.430637 8.9272 1.33088 9.96032C2.23112 10.9934 3.48999 11.6465 4.85317 11.7874C6.21636 11.9284 7.58225 11.5468 8.67492 10.7198L12.7472 14.7814C12.8144 14.851 12.8951 14.9064 12.9843 14.9441C13.0735 14.9819 13.1694 15.0012 13.2662 15.0009C13.3632 15.0024 13.4595 14.9836 13.5488 14.9458C13.6382 14.908 13.7187 14.852 13.7852 14.7814C13.854 14.7136 13.9087 14.6328 13.946 14.5437C13.9833 14.4546 14.0025 14.359 14.0025 14.2624C14.0025 14.1659 13.9833 14.0703 13.946 13.9812C13.9087 13.8921 13.854 13.8113 13.7852 13.7435ZM1.49855 6.4187C1.49855 5.64302 1.7286 4.88477 2.15962 4.23982C2.59063 3.59487 3.20325 3.0922 3.92 2.79536C4.63676 2.49852 5.42545 2.42085 6.18635 2.57218C6.94725 2.72351 7.64618 3.09703 8.19476 3.64551C8.74334 4.194 9.11693 4.89281 9.26828 5.65358C9.41963 6.41435 9.34195 7.2029 9.04506 7.91953C8.74818 8.63616 8.24541 9.24868 7.60035 9.67962C6.95529 10.1106 6.19691 10.3406 5.4211 10.3406C4.38158 10.3379 3.3854 9.92389 2.65035 9.18897C1.9153 8.45405 1.50118 7.45803 1.49855 6.4187Z" fill="#818590"/>
</svg>
