<svg width="14" height="14" viewBox="0 0 14 14" fill="none" xmlns="http://www.w3.org/2000/svg">
<path d="M5.55583 10.5223C5.43195 10.5257 5.31128 10.4826 5.21745 10.4015C5.12363 10.3204 5.0634 10.2071 5.04858 10.0839V6.09815C5.04858 5.96601 5.10097 5.83929 5.19423 5.74586C5.2875 5.65242 5.41399 5.59993 5.54588 5.59993C5.67777 5.59993 5.80427 5.65242 5.89753 5.74586C5.99079 5.83929 6.04319 5.96601 6.04319 6.09815V10.0839C6.03083 10.2045 5.97408 10.3163 5.88399 10.3973C5.79389 10.4784 5.67691 10.5229 5.55583 10.5223ZM9.02701 10.0839V6.09815C9.02701 5.96601 8.97462 5.83929 8.88136 5.74586C8.78809 5.65242 8.6616 5.59993 8.52971 5.59993C8.39782 5.59993 8.27132 5.65242 8.17806 5.74586C8.0848 5.83929 8.0324 5.96601 8.0324 6.09815V10.0839C8.03239 10.1488 8.04532 10.2131 8.07043 10.273C8.09554 10.3329 8.13233 10.3872 8.17865 10.4327C8.22496 10.4782 8.27987 10.5139 8.34015 10.5379C8.40043 10.5618 8.46488 10.5734 8.52971 10.5721C8.6599 10.5721 8.7849 10.521 8.87789 10.4297C8.97087 10.3384 9.02441 10.2143 9.02701 10.0839ZM14.0001 3.9359C13.9974 4.13237 13.9177 4.3199 13.7781 4.4579C13.6385 4.59591 13.4502 4.67327 13.2541 4.67325H12.7568L11.1853 13.1927C11.1409 13.423 11.0168 13.6302 10.8348 13.7779C10.6529 13.9255 10.4248 14.0041 10.1907 13.9998H3.90478C3.67068 14.0041 3.4426 13.9255 3.26066 13.7779C3.07873 13.6302 2.95461 13.423 2.91017 13.1927L1.34863 4.62343H0.821487C0.718326 4.63551 0.613782 4.62557 0.514727 4.59428C0.415672 4.56299 0.32435 4.51105 0.246763 4.44187C0.169177 4.3727 0.107083 4.28785 0.064563 4.19292C0.0220434 4.09798 6.10352e-05 3.99511 6.10352e-05 3.89106C6.10352e-05 3.787 0.0220434 3.68413 0.064563 3.5892C0.107083 3.49426 0.169177 3.40942 0.246763 3.34024C0.32435 3.27107 0.415672 3.21913 0.514727 3.18783C0.613782 3.15654 0.718326 3.14661 0.821487 3.15868H3.86499C3.92132 2.33616 4.27424 1.56222 4.85797 0.981083C5.44171 0.399945 6.21644 0.0512568 7.0378 0C7.86091 0.048925 8.63805 0.396583 9.22384 0.977947C9.80963 1.55931 10.164 2.33456 10.2205 3.15868H13.2044C13.3051 3.15047 13.4064 3.16312 13.502 3.19585C13.5977 3.22858 13.6855 3.28069 13.7602 3.34893C13.8348 3.41717 13.8947 3.50008 13.9359 3.59249C13.9772 3.68491 13.999 3.78484 14.0001 3.88608V3.9359ZM11.235 4.69318H2.87038L4.31257 12.4753H9.79286L11.235 4.69318ZM5.36685 3.15868H8.73858C8.69636 2.72209 8.50335 2.31395 8.19285 2.0047C7.88235 1.69545 7.47383 1.50448 7.0378 1.46475C6.60711 1.51101 6.20559 1.70486 5.90112 2.01351C5.59666 2.32217 5.40793 2.72669 5.36685 3.15868Z" fill="black"/>
</svg>
